<?xml version="1.0" encoding="utf-8"?>
<svg version="1.1" id="expanded" xmlns="http://www.w3.org/2000/svg" xmlns:xlink="http://www.w3.org/1999/xlink" x="0px" y="0px"
	 viewBox="0 0 996 214" enable-background="new 0 0 996 214" xml:space="preserve">

<line id="k_line" fill="none" stroke="#6FD1EF" stroke-width="21" stroke-miterlimit="10" x1="76.504" y1="20.5" x2="76.504" y2="202"/>
<line id="d_line" fill="none" stroke="#6FD1EF" stroke-width="21" stroke-miterlimit="10" x1="76.504" y1="19.5" x2="76.504" y2="201"/>
<path id="d_curve" fill="none" stroke="#2C3E50" stroke-width="24" stroke-miterlimit="10" d="M40.79,200
	C121.053,200,186,159.299,186,109S105.492,18,6,18"/>
<line id="f_top" fill="none" stroke="#2C3E50" stroke-width="26" stroke-miterlimit="10" x1="66" y1="30" x2="200" y2="30"/>
<line id="f_mid" fill="none" stroke="#FC4349" stroke-width="18" stroke-miterlimit="10" x1="77" y1="110" x2="196" y2="110"/>
<line id="f_line" fill="none" stroke="#6FD1EF" stroke-width="21" stroke-miterlimit="10" x1="76.504" y1="18.5" x2="76.504" y2="200"/>
<polygon id="k_top" fill="#D7DADB" points="164.551,19 69.61,101.278 83.828,118.81 199,19 "/>
<polygon id="k_bottom" fill="#D7DADB" points="199,200 162.329,200 69.43,120.04 82.896,100.06 "/>

<g id="daniel">
	<path fill="#6FD1EF" d="M249.605,200c-0.609-1.727-0.999-4.282-1.168-7.668c-2.133,2.776-4.85,4.918-8.15,6.424
		s-6.797,2.26-10.486,2.26c-5.281,0-9.556-1.473-12.822-4.418c-3.268-2.945-4.9-6.669-4.9-11.172c0-5.349,2.226-9.58,6.678-12.695
		c4.451-3.114,10.655-4.672,18.611-4.672h11.02v-6.246c0-3.927-1.211-7.016-3.631-9.268c-2.421-2.251-5.95-3.377-10.588-3.377
		c-4.232,0-7.736,1.084-10.512,3.25c-2.776,2.167-4.164,4.773-4.164,7.82l-6.094-0.051c0-4.367,2.031-8.15,6.094-11.35
		s9.056-4.799,14.98-4.799c6.127,0,10.96,1.532,14.498,4.596c3.537,3.064,5.357,7.338,5.459,12.822v26
		c0,5.315,0.559,9.293,1.676,11.934V200H249.605z M230.512,195.633c4.063,0,7.693-0.981,10.893-2.945
		c3.199-1.963,5.526-4.587,6.982-7.871V172.73H237.52c-6.061,0.068-10.8,1.177-14.219,3.326c-3.42,2.15-5.129,5.104-5.129,8.861
		c0,3.081,1.143,5.637,3.428,7.668S226.855,195.633,230.512,195.633z"/>
	<path fill="#6FD1EF" d="M276.418,145.055l0.203,9.395c2.064-3.385,4.638-5.967,7.719-7.744c3.08-1.777,6.482-2.666,10.207-2.666
		c5.891,0,10.274,1.659,13.152,4.977c2.877,3.318,4.333,8.295,4.367,14.93V200h-6.043v-36.105
		c-0.034-4.908-1.075-8.564-3.123-10.969c-2.049-2.403-5.324-3.605-9.826-3.605c-3.758,0-7.084,1.177-9.979,3.529
		c-2.895,2.354-5.036,5.527-6.424,9.521V200h-6.043v-54.945H276.418z"/>
	<path fill="#6FD1EF" d="M327.402,129.186c0-1.144,0.372-2.111,1.117-2.902c0.744-0.79,1.76-1.186,3.047-1.186
		c1.286,0,2.311,0.396,3.072,1.186c0.762,0.791,1.143,1.758,1.143,2.902s-0.381,2.103-1.143,2.876
		c-0.762,0.774-1.786,1.161-3.072,1.161c-1.287,0-2.303-0.386-3.047-1.161C327.774,131.288,327.402,130.33,327.402,129.186z
		 M334.563,200h-6.094v-54.945h6.094V200z"/>
	<path fill="#6FD1EF" d="M372.344,201.016c-4.672,0-8.896-1.15-12.67-3.453c-3.775-2.302-6.712-5.51-8.811-9.623
		c-2.1-4.113-3.148-8.726-3.148-13.838v-2.184c0-5.281,1.023-10.037,3.072-14.27c2.048-4.231,4.9-7.558,8.557-9.979
		c3.656-2.42,7.617-3.631,11.883-3.631c6.669,0,11.959,2.277,15.869,6.83c3.91,4.554,5.865,10.774,5.865,18.662v3.402h-39.203v1.168
		c0,6.229,1.785,11.418,5.357,15.564c3.571,4.147,8.065,6.221,13.482,6.221c3.25,0,6.119-0.592,8.607-1.777
		c2.488-1.185,4.748-3.08,6.779-5.688l3.809,2.895C387.324,197.783,380.841,201.016,372.344,201.016z M371.227,149.219
		c-4.57,0-8.422,1.676-11.553,5.027c-3.132,3.352-5.036,7.854-5.713,13.508h32.957v-0.66c-0.17-5.281-1.676-9.58-4.52-12.898
		C379.555,150.878,375.83,149.219,371.227,149.219z"/>
	<path fill="#6FD1EF" d="M411.598,200h-6.094v-78h6.094V200z"/>
</g>
<g id="felix">
	<path fill="#6FD1EF" d="M575.824,201.016c-4.672,0-8.896-1.15-12.67-3.453c-3.775-2.302-6.712-5.51-8.811-9.623
		c-2.1-4.113-3.148-8.726-3.148-13.838v-2.184c0-5.281,1.023-10.037,3.072-14.27c2.048-4.231,4.9-7.558,8.557-9.979
		c3.656-2.42,7.617-3.631,11.883-3.631c6.669,0,11.959,2.277,15.869,6.83c3.91,4.554,5.865,10.774,5.865,18.662v3.402h-39.203v1.168
		c0,6.229,1.785,11.418,5.357,15.564c3.571,4.147,8.065,6.221,13.482,6.221c3.25,0,6.119-0.592,8.607-1.777
		c2.488-1.185,4.748-3.08,6.779-5.688l3.809,2.895C590.805,197.783,584.321,201.016,575.824,201.016z M574.707,149.219
		c-4.57,0-8.422,1.676-11.553,5.027c-3.132,3.352-5.036,7.854-5.713,13.508h32.957v-0.66c-0.17-5.281-1.676-9.58-4.52-12.898
		C583.035,150.878,579.311,149.219,574.707,149.219z"/>
	<path fill="#6FD1EF" d="M615.078,200h-6.094v-78h6.094V200z"/>
	<path fill="#6FD1EF" d="M631.227,129.186c0-1.144,0.372-2.111,1.117-2.902c0.744-0.79,1.76-1.186,3.047-1.186
		c1.286,0,2.311,0.396,3.072,1.186c0.762,0.791,1.143,1.758,1.143,2.902s-0.381,2.103-1.143,2.876
		c-0.762,0.774-1.786,1.161-3.072,1.161c-1.287,0-2.303-0.386-3.047-1.161C631.599,131.288,631.227,130.33,631.227,129.186z
		 M638.387,200h-6.094v-54.945h6.094V200z"/>
	<path fill="#6FD1EF" d="M672.156,167.348l14.828-22.293h7.211l-18.637,26.965L695.008,200h-7.16l-15.641-23.258L656.566,200h-7.16
		l19.398-27.98l-18.637-26.965h7.16L672.156,167.348z"/>
	<path fill="#6FD1EF" d="M724.359,169.938h-24.324v-5.129h24.324V169.938z"/>
</g>
<g id="kim">
	<path fill="#6FD1EF" d="M886.605,129.186c0-1.144,0.372-2.111,1.117-2.902c0.744-0.79,1.76-1.186,3.047-1.186
		c1.286,0,2.311,0.396,3.072,1.186c0.762,0.791,1.143,1.758,1.143,2.902s-0.381,2.103-1.143,2.876
		c-0.762,0.774-1.786,1.161-3.072,1.161c-1.287,0-2.303-0.386-3.047-1.161C886.978,131.288,886.605,130.33,886.605,129.186z
		 M893.766,200h-6.094v-54.945h6.094V200z"/>
	<path fill="#6FD1EF" d="M915.805,145.055l0.203,8.938c2.031-3.317,4.57-5.806,7.617-7.465c3.047-1.658,6.432-2.488,10.156-2.488
		c8.666,0,14.168,3.555,16.504,10.664c1.963-3.419,4.587-6.051,7.871-7.896c3.283-1.845,6.906-2.768,10.867-2.768
		c11.781,0,17.79,6.433,18.027,19.297V200h-6.094v-36.207c-0.034-4.908-1.092-8.548-3.174-10.918
		c-2.082-2.369-5.477-3.555-10.182-3.555c-4.367,0.068-8.058,1.481-11.07,4.24c-3.014,2.76-4.689,6.119-5.027,10.08V200h-6.094
		v-36.664c-0.034-4.705-1.143-8.218-3.326-10.537c-2.184-2.318-5.544-3.479-10.08-3.479c-3.826,0-7.109,1.092-9.852,3.275
		s-4.773,5.426-6.094,9.725V200h-6.094v-54.945H915.805z"/>
</g>
</svg>
