<svg id="dfk-logo" xmlns="http://www.w3.org/2000/svg" viewBox="0 0 1005.3 216">
  <title>dfk</title>
  <g>
    <path d="M251.63,205.59l-.94-8.23h-.41a24.34,24.34,0,0,1-20,9.72c-13.23,0-20-9.31-20-18.76,0-15.79,14-24.43,39.28-24.3v-1.35c0-5.4-1.48-15.12-14.85-15.12a32.56,32.56,0,0,0-17,4.86l-2.7-7.83c5.4-3.51,13.23-5.8,21.46-5.8,20,0,24.84,13.63,24.84,26.73v24.43a92,92,0,0,0,1.08,15.66Zm-1.75-33.34c-13-.27-27.67,2-27.67,14.71,0,7.7,5.13,11.34,11.2,11.34a16.26,16.26,0,0,0,15.79-10.93,12.39,12.39,0,0,0,.68-3.78Z" transform="translate(-12.5 -5)"/>
    <path d="M280.52,157.94c0-6.75-.13-12.28-.54-17.68h10.53l.67,10.8h.27c3.24-6.21,10.8-12.28,21.6-12.28,9,0,23.08,5.4,23.08,27.81v39H324.26V167.93c0-10.53-3.92-19.3-15.12-19.3a16.88,16.88,0,0,0-15.93,12.15,17.08,17.08,0,0,0-.81,5.54v39.28H280.52Z" transform="translate(-12.5 -5)"/>
    <path d="M368.67,121.9c.13,4-2.83,7.29-7.56,7.29A7.06,7.06,0,0,1,354,121.9a7.24,7.24,0,0,1,7.42-7.42A7.05,7.05,0,0,1,368.67,121.9Zm-13.23,83.7V140.25h11.88v65.34Z" transform="translate(-12.5 -5)"/>
    <path d="M393.65,175.08c.27,16.06,10.53,22.68,22.41,22.68,8.5,0,13.63-1.49,18.09-3.37l2,8.5c-4.18,1.89-11.34,4-21.73,4-20.11,0-32.13-13.23-32.13-32.94s11.61-35.23,30.64-35.23c21.33,0,27,18.76,27,30.78a44.64,44.64,0,0,1-.41,5.53Zm34.83-8.5c.13-7.56-3.1-19.3-16.47-19.3-12,0-17.28,11.07-18.22,19.3Z" transform="translate(-12.5 -5)"/>
    <path d="M454.67,109.75h11.88v95.85H454.67Z" transform="translate(-12.5 -5)"/>
  </g>
  <g>
    <path d="M565.06,175.08c.27,16.06,10.53,22.68,22.41,22.68,8.51,0,13.63-1.49,18.09-3.37l2,8.5c-4.18,1.89-11.34,4.05-21.73,4.05-20.11,0-32.13-13.23-32.13-32.94s11.61-35.23,30.64-35.23c21.33,0,27,18.76,27,30.78a44.64,44.64,0,0,1-.41,5.53Zm34.83-8.5c.13-7.56-3.11-19.3-16.47-19.3-12,0-17.28,11.07-18.22,19.3Z" transform="translate(-12.5 -5)"/>
    <path d="M626.08,109.75H638v95.85H626.08Z" transform="translate(-12.5 -5)"/>
    <path d="M671.17,121.9c.13,4-2.83,7.29-7.56,7.29a7.06,7.06,0,0,1-7.15-7.29,7.24,7.24,0,0,1,7.42-7.42A7.05,7.05,0,0,1,671.17,121.9Zm-13.23,83.7V140.26h11.88v65.34Z" transform="translate(-12.5 -5)"/>
    <path d="M695.06,140.26l9.31,14c2.43,3.65,4.46,7,6.61,10.66h.41c2.16-3.92,4.32-7.29,6.48-10.8l9.18-13.9h12.83l-22.27,31.59,22.95,33.75h-13.5l-9.58-14.71c-2.57-3.78-4.73-7.43-7-11.34h-.27c-2.16,3.91-4.46,7.42-6.88,11.34l-9.45,14.71H680.75L704,172.25l-22.14-32Z" transform="translate(-12.5 -5)"/>
    <path d="M778.76,164.69v8.77H745.42v-8.77Z" transform="translate(-12.5 -5)"/>
  </g>
  <g>
    <path d="M906.16,115.9c.13,4-2.83,7.29-7.56,7.29a7.06,7.06,0,0,1-7.15-7.29,7.24,7.24,0,0,1,7.42-7.42A7.05,7.05,0,0,1,906.16,115.9Zm-13.23,83.7V134.25h11.88v65.34Z" transform="translate(-12.5 -5)"/>
    <path d="M924.52,151.94c0-6.75-.13-12.28-.54-17.68h10.39l.54,10.53h.41c3.64-6.21,9.72-12,20.52-12a19.32,19.32,0,0,1,18.5,13.09h.27a26.92,26.92,0,0,1,7.29-8.5c3.92-3,8.23-4.59,14.44-4.59,8.64,0,21.46,5.67,21.46,28.35v38.47h-11.61v-37c0-12.55-4.59-20.11-14.17-20.11-6.75,0-12,5-14,10.8a19.56,19.56,0,0,0-.95,5.94v40.36H965.42V160.44c0-10.39-4.59-18-13.63-18-7.42,0-12.82,5.94-14.71,11.88a16.38,16.38,0,0,0-.95,5.8v39.42H924.52Z" transform="translate(-12.5 -5)"/>
  </g>
  <g id="kimK">
    <line id="sideK" x1="43" y1="6.5" x2="43" y2="209.5" fill="none" stroke="#000" stroke-miterlimit="10" stroke-width="13"/>
    <line id="botK" x1="43" y1="107.5" x2="43" y2="6.5" fill="none" stroke="#000" stroke-miterlimit="10" stroke-width="13"/>
    <line id="topK" x1="43" y1="107.5" x2="43" y2="6.5" fill="none" stroke="#000" stroke-miterlimit="10" stroke-width="13"/>
  </g>
  <g id="felixF">
    <line id="topF" x1="49" y1="12.5" x2="36.5" y2="12.5" fill="none" stroke="#000" stroke-miterlimit="10" stroke-width="13"/>
    <line x1="43" y1="6.5" x2="43" y2="209.5" fill="none" stroke="#000" stroke-miterlimit="10" stroke-width="13"/>
    <line id="midF" x1="43" y1="108.5" x2="43" y2="61.5" fill="none" stroke="#000" stroke-miterlimit="10" stroke-width="13"/>
  </g>
  <g id="danielD">
    <path d="M55.5,214.5c86.23,0,156-45.62,156-102,0-55.83-69.77-101-156-101v33h4" transform="translate(-12.5 -5)" fill="none" stroke="#000" stroke-miterlimit="10" stroke-width="13"/>
    <line x1="43" y1="209.5" x2="18" y2="209.5" fill="none" stroke="#000" stroke-miterlimit="10" stroke-width="13"/>
    <line x1="43" y1="6.5" y2="6.5" fill="none" stroke="#000" stroke-miterlimit="10" stroke-width="13"/>
    <line x1="43" y1="6.5" x2="43" y2="209.5" fill="none" stroke="#000" stroke-miterlimit="10" stroke-width="13"/>
  </g>
</svg>
