<?xml version="1.0" encoding="utf-8"?>
<svg version="1.1" id="dfk_logo" xmlns="http://www.w3.org/2000/svg" xmlns:xlink="http://www.w3.org/1999/xlink" x="0px" y="0px"
	 viewBox="0 0 1152 290" enable-background="new 0 0 1152 290" xml:space="preserve">
	<g id="dfk_initials">
	 	<g id="d_letter">
		<line id="d_line" fill="none" stroke="#2196F3" stroke-width="21" stroke-miterlimit="10" x1="102.504" y1="43.5" x2="102.504" y2="225"/>
		<path id="d_curve" fill="none" stroke="#0D47A1" stroke-width="24" stroke-miterlimit="10" d="M66.79,224
			C147.053,224,212,183.299,212,133S131.492,42,32,42"/>
		</g>
		<g id ="k_letter">
			<polygon id="k_top" fill="#00BCD4" points="190.551,43 95.61,125.278 109.828,142.81 225,43 ">
				<animateTransform id="k_top_transform"
					attributeName="transform"
					attributeType="XML"
					type="translate"
					dur="1.5s"
					from="0"
					to="775"
					fill="freeze"/>
			</polygon>
			<polygon id="k_bottom" fill="#00BCD4" points="225,224 188.329,224 95.43,144.04 108.896,124.06 ">
				<animateTransform id="k_bottom_transform"
					attributeName="transform"
					attributeType="XML"
					type="translate"
					dur="1.5s"
					from="0"
					to="775"
					fill="freeze"/>
			</polygon>
			<line id="k_line" fill="none" stroke="#2196F3" stroke-width="21" stroke-miterlimit="10" x1="102.504" y1="44.5" x2="102.504" y2="226">
				<animateTransform id="k_bottom_transform"
					attributeName="transform"
					attributeType="XML"
					type="translate"
					dur="1.5s"
					from="0"
					to="775"
					fill="freeze"/>
			</line>
		</g>
		<g id="f_letter">
			<line id="f_top" fill="none" stroke="#0D47A1" stroke-width="26" stroke-miterlimit="10" x1="92" y1="54" x2="226" y2="54">
				<animateTransform id="f_top_transform"
					attributeName="transform"
					attributeType="XML"
					type="translate"
					dur="1.5s"
					from="0"
					to="425"
					fill="freeze"/>
			</line>
			<line id="f_mid" fill="none" stroke="#009688" stroke-width="18" stroke-miterlimit="10" x1="103" y1="134" x2="222" y2="134">
				<animateTransform id="f_mid_transform"
					attributeName="transform"
					attributeType="XML"
					type="translate"
					dur="1.5s"
					from="0"
					to="425"
					fill="freeze"/>
			</line>
			<line id="f_line" fill="none" stroke="#2196F3" stroke-width="21" stroke-miterlimit="10" x1="102.504" y1="42.5" x2="102.504" y2="224">
				<animateTransform id="f_mid_transform"
					attributeName="transform"
					attributeType="XML"
					type="translate"
					dur="1.5s"
					from="0"
					to="425"
					fill="freeze"/>
			</line>
		</g>
	</g>
	<g id="letters">
		<g id="daniel">
		<path fill="#2196F3" d="M271.391,197.602c-3.729,4.475-10.939,7.458-18.647,7.458c-9.199,0-20.636-6.216-20.636-19.766
			c0-14.545,11.437-18.896,20.636-18.896c7.956,0,15.042,2.486,18.647,6.962v-7.583c0-5.221-4.475-8.702-12.183-8.702
			c-5.967,0-12.183,2.238-17.031,6.34l-6.837-12.058c7.708-6.589,18.025-9.324,27.225-9.324c14.42,0,27.971,5.346,27.971,23.993
			v37.542h-19.145V197.602z M271.391,182.808c-1.989-2.735-6.464-4.227-10.691-4.227c-5.097,0-9.572,2.237-9.572,6.961
			c0,4.724,4.475,6.961,9.572,6.961c4.227,0,8.702-1.492,10.691-4.351V182.808z"/>
		<path fill="#2196F3" d="M345.11,168.885c0-7.334-3.854-9.945-9.82-9.945c-5.719,0-9.448,3.108-11.686,5.843v38.786H304.46v-60.043
			h19.145v7.334c3.605-4.227,10.691-8.826,20.76-8.826c13.674,0,19.89,7.956,19.89,19.02v42.515H345.11V168.885z"/>
		<path fill="#2196F3" d="M376.812,125.002c0-6.091,4.848-10.94,10.939-10.94s10.939,4.849,10.939,10.94s-4.848,10.939-10.939,10.939
			S376.812,131.094,376.812,125.002z M378.179,143.525h19.145v60.043h-19.145V143.525z"/>
		<path fill="#2196F3" d="M439.217,142.033c17.777,0,30.705,13.053,30.705,33.44v4.102h-42.764
			c1.119,5.594,6.34,10.691,15.291,10.691c5.346,0,11.313-2.113,14.669-5.097l8.081,11.934c-5.967,5.346-15.912,7.956-25.111,7.956
			c-18.522,0-32.819-12.058-32.819-31.576C407.268,156.081,420.445,142.033,439.217,142.033z M426.91,167.145h24.738
			c-0.497-4.227-3.605-10.318-12.431-10.318C430.888,156.827,427.656,162.793,426.91,167.145z"/>
		<path fill="#2196F3" d="M479.371,120.651h19.145v82.917h-19.145V120.651z"/>
		</g>
		<g id="felix">
			<path fill="#2196F3" d="M635.883,142.033c17.777,0,30.706,13.053,30.706,33.44v4.102h-42.765
				c1.119,5.594,6.341,10.691,15.291,10.691c5.346,0,11.313-2.113,14.669-5.097l8.08,11.934c-5.967,5.346-15.912,7.956-25.11,7.956
				c-18.523,0-32.819-12.058-32.819-31.576C603.935,156.081,617.111,142.033,635.883,142.033z M623.576,167.145h24.738
				c-0.497-4.227-3.605-10.318-12.432-10.318C627.555,156.827,624.322,162.793,623.576,167.145z"/>
			<path fill="#2196F3" d="M676.038,120.651h19.144v82.917h-19.144V120.651z"/>
			<path fill="#2196F3" d="M707.737,125.002c0-6.091,4.849-10.94,10.939-10.94c6.092,0,10.94,4.849,10.94,10.94
				s-4.849,10.939-10.94,10.939C712.586,135.942,707.737,131.094,707.737,125.002z M709.105,143.525h19.144v60.043h-19.144V143.525z"
				/>
			<path fill="#2196F3" d="M767.035,185.418l-11.686,18.15h-20.885l20.512-30.83l-19.269-29.214h21.009l10.318,16.285l10.193-16.285
				h21.01l-19.145,29.214l20.512,30.83h-21.009L767.035,185.418z"/>
			<path fill="#2196F3" d="M802.59,165.404h29.835v16.036H802.59V165.404z"/>
		</g>
		<g id="kim">
			<path fill="#2196F3" d="M963.223,125.002c0-6.091,4.849-10.94,10.939-10.94c6.092,0,10.94,4.849,10.94,10.94
				s-4.849,10.939-10.94,10.939C968.071,135.942,963.223,131.094,963.223,125.002z M964.591,143.525h19.144v60.043h-19.144V143.525z"
				/>
			<path fill="#2196F3" d="M1073.364,167.02c0-4.6-2.237-8.08-7.956-8.08c-5.221,0-8.95,3.356-10.814,5.843v38.786h-19.145V167.02
				c0-4.6-2.113-8.08-7.956-8.08c-5.097,0-8.702,3.356-10.691,5.843v38.786h-19.144v-60.043h19.144v7.334
				c2.611-3.48,10.318-8.826,19.767-8.826c8.577,0,14.544,3.605,17.03,10.691c3.481-5.221,11.313-10.691,20.761-10.691
				c11.063,0,18.025,5.718,18.025,18.025v43.51h-19.021V167.02z"/>
		</g>
	</g>
</svg>
