<?xml version="1.0" encoding="utf-8"?>
<!-- Generator: Adobe Illustrator 21.1.0, SVG Export Plug-In . SVG Version: 6.00 Build 0)  -->
<svg version="1.1" id="Layer_1" xmlns="http://www.w3.org/2000/svg" xmlns:xlink="http://www.w3.org/1999/xlink" x="0px" y="0px"
	 viewBox="0 0 866 100" enable-background="new 0 0 866 100" xml:space="preserve">
<g>
	<path fill="#2196F3" d="M42.391,86.602c-3.729,4.475-10.939,7.458-18.647,7.458c-9.199,0-20.636-6.216-20.636-19.766
		c0-14.545,11.437-18.896,20.636-18.896c7.956,0,15.042,2.486,18.647,6.962v-7.583c0-5.221-4.475-8.702-12.183-8.702
		c-5.967,0-12.183,2.238-17.031,6.34L6.34,40.357c7.708-6.589,18.025-9.324,27.225-9.324c14.42,0,27.971,5.346,27.971,23.993v37.542
		H42.391V86.602z M42.391,71.808c-1.989-2.735-6.464-4.227-10.691-4.227c-5.097,0-9.572,2.237-9.572,6.961
		c0,4.724,4.475,6.961,9.572,6.961c4.227,0,8.702-1.492,10.691-4.351V71.808z"/>
	<path fill="#2196F3" d="M116.11,57.885c0-7.334-3.854-9.945-9.82-9.945c-5.719,0-9.448,3.108-11.686,5.843v38.786H75.46V32.525
		h19.145v7.334c3.605-4.227,10.691-8.826,20.76-8.826c13.674,0,19.89,7.956,19.89,19.02v42.515H116.11V57.885z"/>
	<path fill="#2196F3" d="M147.812,14.002c0-6.091,4.848-10.94,10.939-10.94s10.939,4.849,10.939,10.94s-4.848,10.939-10.939,10.939
		S147.812,20.094,147.812,14.002z M149.179,32.525h19.145v60.043h-19.145V32.525z"/>
	<path fill="#2196F3" d="M210.217,31.033c17.777,0,30.705,13.053,30.705,33.44v4.102h-42.764c1.119,5.594,6.34,10.691,15.291,10.691
		c5.346,0,11.313-2.113,14.669-5.097l8.081,11.934c-5.967,5.346-15.912,7.956-25.111,7.956c-18.522,0-32.819-12.058-32.819-31.576
		C178.268,45.081,191.445,31.033,210.217,31.033z M197.91,56.145h24.738c-0.497-4.227-3.605-10.318-12.431-10.318
		C201.888,45.827,198.656,51.793,197.91,56.145z"/>
	<path fill="#2196F3" d="M250.371,9.651h19.145v82.917h-19.145V9.651z"/>
	<path fill="#2196F3" d="M406.883,31.033c17.777,0,30.706,13.053,30.706,33.44v4.102h-42.765
		c1.119,5.594,6.341,10.691,15.291,10.691c5.346,0,11.313-2.113,14.669-5.097l8.08,11.934c-5.967,5.346-15.912,7.956-25.11,7.956
		c-18.523,0-32.819-12.058-32.819-31.576C374.935,45.081,388.111,31.033,406.883,31.033z M394.576,56.145h24.738
		c-0.497-4.227-3.605-10.318-12.432-10.318C398.555,45.827,395.322,51.793,394.576,56.145z"/>
	<path fill="#2196F3" d="M447.038,9.651h19.144v82.917h-19.144V9.651z"/>
	<path fill="#2196F3" d="M478.737,14.002c0-6.091,4.849-10.94,10.939-10.94c6.092,0,10.94,4.849,10.94,10.94
		s-4.849,10.939-10.94,10.939C483.586,24.942,478.737,20.094,478.737,14.002z M480.105,32.525h19.144v60.043h-19.144V32.525z"/>
	<path fill="#2196F3" d="M538.035,74.418l-11.686,18.15h-20.885l20.512-30.83l-19.269-29.214h21.009l10.318,16.285l10.193-16.285
		h21.01l-19.145,29.214l20.512,30.83h-21.009L538.035,74.418z"/>
	<path fill="#2196F3" d="M573.59,54.404h29.835V70.44H573.59V54.404z"/>
	<path fill="#2196F3" d="M708.223,14.002c0-6.091,4.849-10.94,10.939-10.94c6.092,0,10.94,4.849,10.94,10.94
		s-4.849,10.939-10.94,10.939C713.071,24.942,708.223,20.094,708.223,14.002z M709.591,32.525h19.144v60.043h-19.144V32.525z"/>
	<path fill="#2196F3" d="M818.364,56.02c0-4.6-2.237-8.08-7.956-8.08c-5.221,0-8.95,3.356-10.814,5.843v38.786h-19.145V56.02
		c0-4.6-2.113-8.08-7.956-8.08c-5.097,0-8.702,3.356-10.691,5.843v38.786h-19.144V32.525h19.144v7.334
		c2.611-3.48,10.318-8.826,19.767-8.826c8.577,0,14.544,3.605,17.03,10.691c3.481-5.221,11.313-10.691,20.761-10.691
		c11.063,0,18.025,5.718,18.025,18.025v43.51h-19.021V56.02z"/>
</g>
</svg>
