<?xml version="1.0" encoding="utf-8"?>
<!-- Generator: Adobe Illustrator 21.1.0, SVG Export Plug-In . SVG Version: 6.00 Build 0)  -->
<svg version="1.1" id="Layer_1" xmlns="http://www.w3.org/2000/svg" xmlns:xlink="http://www.w3.org/1999/xlink" x="0px" y="0px"
	 viewBox="0 0 238 108.987" enable-background="new 0 0 238 108.987" xml:space="preserve">
<g>
	<path fill="#2196F3" d="M34.932,42.021c17.777,0,30.706,13.053,30.706,33.44v4.103H22.874c1.119,5.594,6.34,10.69,15.291,10.69
		c5.346,0,11.313-2.113,14.669-5.097l8.081,11.934c-5.967,5.346-15.912,7.957-25.111,7.957c-18.522,0-32.819-12.059-32.819-31.576
		C2.983,56.067,16.161,42.021,34.932,42.021z M22.625,67.132h24.738c-0.497-4.227-3.605-10.318-12.431-10.318
		C26.603,56.813,23.371,62.78,22.625,67.132z"/>
	<path fill="#2196F3" d="M75.086,20.639H94.23v82.917H75.086V20.639z"/>
	<path fill="#2196F3" d="M106.786,24.989c0-6.091,4.848-10.939,10.939-10.939s10.939,4.849,10.939,10.939
		c0,6.092-4.848,10.939-10.939,10.939S106.786,31.081,106.786,24.989z M108.153,43.513h19.145v60.043h-19.145V43.513z"/>
	<path fill="#2196F3" d="M166.083,85.405l-11.686,18.15h-20.885l20.512-30.83l-19.269-29.213h21.009l10.318,16.285l10.194-16.285
		h21.009l-19.144,29.213l20.512,30.83h-21.009L166.083,85.405z"/>
	<path fill="#2196F3" d="M201.639,65.392h29.835v16.036h-29.835V65.392z"/>
</g>
</svg>
