<?xml version="1.0" encoding="utf-8"?>
<!-- Generator: Adobe Illustrator 21.1.0, SVG Export Plug-In . SVG Version: 6.00 Build 0)  -->
<svg version="1.1" id="Layer_1" xmlns="http://www.w3.org/2000/svg" xmlns:xlink="http://www.w3.org/1999/xlink" x="0px" y="0px"
	 viewBox="0 0 147 105" enable-background="new 0 0 147 105" xml:space="preserve">
<g>
	<path fill="#2196F3" d="M5.594,15.434c0-6.091,4.849-10.94,10.939-10.94c6.092,0,10.939,4.849,10.939,10.94
		s-4.848,10.939-10.939,10.939C10.442,26.374,5.594,21.525,5.594,15.434z M6.961,33.957h19.145V94H6.961V33.957z"/>
	<path fill="#2196F3" d="M115.735,57.452c0-4.6-2.237-8.08-7.956-8.08c-5.221,0-8.95,3.356-10.814,5.843V94H77.82V57.452
		c0-4.6-2.113-8.08-7.956-8.08c-5.097,0-8.702,3.356-10.69,5.843V94H40.029V33.957h19.145v7.334
		c2.609-3.48,10.317-8.826,19.766-8.826c8.577,0,14.544,3.605,17.03,10.691c3.481-5.221,11.313-10.691,20.761-10.691
		c11.063,0,18.025,5.718,18.025,18.025V94h-19.021V57.452z"/>
</g>
</svg>
